# xmcd
#
# Track frame offsets:
#	150
#	11933
#	25778
#	38343
#	50265
#	62473
#	74490
#	86815
#	98823
#	111180
#	123175
#	135400
#	144308
#	153020
#	164278
#	173608
#	184535
#	196715
#
# Disc length: 2760 seconds
#
# Revision: 3
# Processed by: cddbd v1.5.1PL0 Copyright (c) Steve Scherf et al.
# Submitted via: audiograbber 1.83.01
#
DISCID=d90ac612
DTITLE=Various Artist - Hillbilly Fever - Vol. 2: Legends Of Honky Tonk
DYEAR=1996
DGENRE=Country
TTITLE0=Al Dexter - Honky Tonk Blues
TTITLE1=Rex Griffin - The Last Letter
TTITLE2=Cliff Bruner's Texas Wanderers - It Makes No Difference Now
TTITLE3=Ernest Tubb - Walking The Floor Over You
TTITLE4=Ted Daffan's Texans - Born To Lose
TTITLE5=Floyd Tillman - Drivin' Nails In My Coffin
TTITLE6=Hank Williams - Honky Tonkin'
TTITLE7=Red Foley - Tenessee Saturday Night
TTITLE8=Leon Payne - I Love You Because
TTITLE9=Johnny Bond - Sick Sober And Sorry
TTITLE10=Hank Thompson - The Wild Side Of Life
TTITLE11=The Tunesmiths - Baby I'm Ready
TTITLE12=Hawshaw Hawkins - Car Hoppin' Momma
TTITLE13=Red Sovine - Juke Joint Johnny
TTITLE14=Lefty Frizzell - Just Can't Live That Fast (Any More)
TTITLE15=Charlie Walker - Pick Me Up On Your Way Down
TTITLE16=George Jones - A Girl I Used To Know
TTITLE17=Jim Edward Brown - Pop A Top
EXTD=Rhino Records  R2 71901
EXTT0=
EXTT1=
EXTT2=
EXTT3=
EXTT4=
EXTT5=
EXTT6=
EXTT7=
EXTT8=
EXTT9=
EXTT10=
EXTT11=
EXTT12=
EXTT13=
EXTT14=
EXTT15=
EXTT16=
EXTT17=
PLAYORDER=
